{"title":"Special Train for Hitler (1977) PAL DVDR DD2.0 NL Subs","uid":8335351,"size":4472312138,"categoryP":"video","categoryS":"movies_dvdr","magnet":"?xt=urn:btih:3ee19556f362614d5e2c03a3138fdb9ec7751cd9&amp;dn=Special+Train+for+Hitler+%281977%29+PAL+DVDR+DD2.0+NL+Subs&amp;tr=udp%3A%2F%2Ftracker.openbittorrent.com%3A80&amp;tr=udp%3A%2F%2Fopen.demonii.com%3A1337&amp;tr=udp%3A%2F%2Ftracker.coppersurfer.tk%3A6969&amp;tr=udp%3A%2F%2Fexodus.desync.com%3A6969","seeders":2,"leechers":0,"uploader":"NLUPPER002","files":-1,"time":1364978114,"description":"Special Train for Hitler (1977) PAL DVDR DD2.0 NL Subs\n.\nUser request: Enjoy it, not my type off movie.\n.\n[IMG]http://i.imgur.com/bZvvpJY.jpg[/IMG]\n.\n75 min  -  Drama | Thriller | War  -  23 February 1977 (France)\n. &lt;a href=&quot;\nhttp://www.imdb.com/title/tt0076836/&quot; rel=&quot;nofollow&quot; target=&quot;_NEW&quot;&gt;\nhttp://www.imdb.com/title/tt0076836/&lt;/a&gt;\n. &lt;a href=&quot;\nhttp://www.moviemeter.nl/film/13794&quot; rel=&quot;nofollow&quot; target=&quot;_NEW&quot;&gt;\nhttp://www.moviemeter.nl/film/13794&lt;/a&gt;\n.\nPLOT\n.\nThe SS puts a slutty nightclub singer in charge of a train car full of prostitutes whose &quot;services&quot; are reserved solely for Adolf Hitler. \n.\nSource: NL Retail\nFormat: DVD5\nVideo: PAL\nAudio: English DD2.0\nRetail Subtitles: Dutch\nMenu: Yes\nExtra's: NOS\nRemoved: Warnings and useless stuff.\nNotes: Exploitation Series, Old movie, so don't expect the quality as it is today.\n.\nEnjoy DVDR by NLU002\n.\nInfo from VTS 0101\n.\nGeneral\nFormat                                   : MPEG-PS\nFile size                                : 1 024 MiB\nDuration                                 : 29mn 32s\nOverall bit rate mode                    : Variable\nOverall bit rate                         : 4 846 Kbps\n\nVideo\nID                                       : 224 (0xE0)\nFormat                                   : MPEG Video\nFormat version                           : Version 2\nFormat profile                           : Main@Main\nFormat settings, BVOP                    : Yes\nFormat settings, Matrix                  : Custom\nFormat settings, GOP                     : M=3, N=15\nDuration                                 : 29mn 32s\nBit rate mode                            : Variable\nBit rate                                 : 4 494 Kbps\nMaximum bit rate                         : 8 000 Kbps\nWidth                                    : 720 pixels\nHeight                                   : 576 pixels\nDisplay aspect ratio                     : 16:9\nFrame rate                               : 25.000 fps\nStandard                                 : PAL\nColor space                              : YUV\nChroma subsampling                       : 4:2:0\nBit depth                                : 8 bits\nScan type                                : Interlaced\nScan order                               : Top Field First\nCompression mode                         : Lossy\nBits/(Pixel*Frame)                       : 0.433\nStream size                              : 950 MiB (93%)\n\nAudio\nID                                       : 189 (0xBD)-128 (0x80)\nFormat                                   : AC-3\nFormat/Info                              : Audio Coding 3\nMode extension                           : CM (complete main)\nFormat settings, Endianness              : Big\nMuxing mode                              : DVD-Video\nDuration                                 : 29mn 32s\nBit rate mode                            : Constant\nBit rate                                 : 256 Kbps\nChannel(s)                               : 2 channels\nChannel positions                        : Front: L R\nSampling rate                            : 48.0 KHz\nBit depth                                : 16 bits\nCompression mode                         : Lossy\nStream size                              : 54.1 MiB (5%)\n\nText\nID                                       : 189 (0xBD)-32 (0x20)\nFormat                                   : RLE\nFormat/Info                              : Run-length encoding\nMuxing mode                              : DVD-Video\nDelay relative to video                  : 160ms\n\nMenu","torrent":{"xt":"urn:btih:3ee19556f362614d5e2c03a3138fdb9ec7751cd9","amp;dn":"Special+Train+for+Hitler+%281977%29+PAL+DVDR+DD2.0+NL+Subs","amp;tr":["udp%3A%2F%2Ftracker.openbittorrent.com%3A80","udp%3A%2F%2Fopen.demonii.com%3A1337","udp%3A%2F%2Ftracker.coppersurfer.tk%3A6969","udp%3A%2F%2Fexodus.desync.com%3A6969"],"infoHash":"3ee19556f362614d5e2c03a3138fdb9ec7751cd9","infoHashBuffer":{"type":"Buffer","data":[62,225,149,86,243,98,97,77,94,44,3,163,19,143,219,158,199,117,28,217]},"announce":[],"urlList":[]}}